<svg xmlns="http://www.w3.org/2000/svg" width="1280" height="640" viewBox="0 0 1280 640" role="img" aria-labelledby="title description">
  <title id="title">package-release-workflows</title>
  <desc id="description">The package-release-workflows mark and wordmark on a dark social card.</desc>
  <defs>
    <clipPath id="card-clip">
      <rect x="10" y="10" width="1260" height="620" rx="56"/>
    </clipPath>
  </defs>
  <rect x="10" y="10" width="1260" height="620" rx="56" fill="#171522" fill-opacity="0.97" stroke="#f59e0b" stroke-width="4" stroke-opacity="0.7"/>
  <g clip-path="url(#card-clip)">
    <circle cx="1160" cy="90" r="220" fill="#f59e0b" opacity="0.055"/>
    <circle cx="1110" cy="585" r="285" fill="#f59e0b" opacity="0.035"/>
  </g>
  <path d="M480 408H1136" stroke="#f59e0b" stroke-width="4" opacity="0.65"/>
  <g transform="translate(96 160) scale(1.25) translate(-0 -0)" aria-hidden="true">
<defs>
    <linearGradient id="workflow" x1="40" y1="38" x2="219" y2="219" gradientUnits="userSpaceOnUse">
      <stop stop-color="#f59e0b"/>
      <stop offset="1" stop-color="#a78bfa"/>
    </linearGradient>
  </defs>
  <rect x="18" y="18" width="220" height="220" rx="48" fill="#171522"/>
  <path d="M43 75h49M164 75h49M67 75v45M189 75v45M67 181v-31M189 181v-31M92 181h72" fill="none" stroke="#667085" stroke-width="8" stroke-linecap="round"/>
  <circle cx="43" cy="75" r="14" fill="#f59e0b"/>
  <circle cx="213" cy="75" r="14" fill="#a78bfa"/>
  <circle cx="67" cy="181" r="14" fill="#38bdf8"/>
  <circle cx="189" cy="181" r="14" fill="#4ade80"/>
  <path d="M89 102l39-22 39 22-39 23-39-23Z" fill="#30294a" stroke="url(#workflow)" stroke-width="7" stroke-linejoin="round"/>
  <path d="M89 102v45l39 23 39-23v-45M128 125v45" fill="none" stroke="#e4e7ec" stroke-width="7" stroke-linejoin="round"/>
  </g>
  <text x="480" y="325" fill="#f8fafc" font-family="Inter, ui-sans-serif, system-ui, -apple-system, BlinkMacSystemFont, 'Segoe UI', sans-serif" font-size="57" font-weight="750" letter-spacing="-4">
    <tspan>package-release</tspan><tspan fill="#f59e0b">-workflows</tspan>
  </text>
  <text x="484" y="379" fill="#cbd5e1" font-family="Inter, ui-sans-serif, system-ui, -apple-system, BlinkMacSystemFont, 'Segoe UI', sans-serif" font-size="19" font-weight="650" letter-spacing="2.2">
    REPRODUCIBLE MULTI-CHANNEL RELEASE DELIVERY
  </text>
</svg>
